<svg width="266" height="63" viewBox="0 0 266 63" fill="none" xmlns="http://www.w3.org/2000/svg">
<path d="M39.816 30.392C40.232 30.392 40.552 30.6 40.776 31.016C41.032 31.4 41.16 31.896 41.16 32.504C41.16 33.24 41.048 33.816 40.824 34.232C40.6 34.648 40.248 35.016 39.768 35.336C37.88 36.584 34.872 38.632 30.744 41.48C29.496 48.104 27.88 53.32 25.896 57.128C23.912 60.936 21.4 62.84 18.36 62.84C16.728 62.84 15.4 62.328 14.376 61.304C13.352 60.312 12.84 59 12.84 57.368C12.84 55.864 13.176 54.344 13.848 52.808C14.52 51.272 15.768 49.496 17.592 47.48C19.448 45.464 22.056 43.16 25.416 40.568L25.56 39.656C23.032 40.712 20.552 41.24 18.12 41.24C14.536 41.24 11.384 40.552 8.664 39.176C5.944 37.768 3.832 35.784 2.328 33.224C0.824 30.664 0.0720001 27.688 0.0720001 24.296C0.0720001 19.56 0.968 15.384 2.76 11.768C4.552 8.12 7.016 5.304 10.152 3.32C13.32 1.304 16.856 0.295998 20.76 0.295998C24.504 0.295998 27.304 1.176 29.16 2.936C31.048 4.664 31.992 6.968 31.992 9.848C31.992 11.736 31.64 13.256 30.936 14.408C30.264 15.528 29.288 16.088 28.008 16.088C27.144 16.088 26.44 15.88 25.896 15.464C25.384 15.048 25.128 14.472 25.128 13.736C25.128 13.416 25.192 12.872 25.32 12.104C25.512 11.208 25.608 10.504 25.608 9.992C25.608 8.648 25.192 7.608 24.36 6.872C23.56 6.136 22.2 5.768 20.28 5.768C17.944 5.768 15.768 6.44 13.752 7.784C11.768 9.128 10.168 11.144 8.952 13.832C7.736 16.488 7.128 19.688 7.128 23.432C7.128 27.272 8.168 30.248 10.248 32.36C12.36 34.44 15.4 35.48 19.368 35.48C21.576 35.48 23.88 34.984 26.28 33.992L26.952 28.136H22.056C21.16 28.136 20.472 27.928 19.992 27.512C19.512 27.064 19.272 26.344 19.272 25.352C19.272 24.456 19.512 23.752 19.992 23.24C20.472 22.728 21.112 22.472 21.912 22.472H30.888C31.592 22.472 32.168 22.712 32.616 23.192C33.096 23.64 33.288 24.296 33.192 25.16C33.096 26.184 32.776 28.504 32.232 32.12L31.704 35.768C34.264 33.848 36.6 32.184 38.712 30.776C39.128 30.52 39.496 30.392 39.816 30.392ZM18.888 58.184C19.72 58.184 20.632 57.24 21.624 55.352C22.616 53.464 23.544 50.424 24.408 46.232C21.976 48.312 20.216 50.184 19.128 51.848C18.072 53.544 17.544 55.032 17.544 56.312C17.544 57.56 17.992 58.184 18.888 58.184ZM41.1026 41.24C39.8866 41.24 39.0226 40.6 38.5106 39.32C38.0306 38.04 37.7906 35.992 37.7906 33.176C37.7906 29.016 38.3826 25.064 39.5666 21.32C39.8546 20.392 40.3186 19.72 40.9586 19.304C41.6306 18.856 42.5586 18.632 43.7426 18.632C44.3826 18.632 44.8306 18.712 45.0866 18.872C45.3426 19.032 45.4706 19.336 45.4706 19.784C45.4706 20.296 45.2306 21.448 44.7506 23.24C44.4306 24.52 44.1746 25.64 43.9826 26.6C43.7906 27.56 43.6306 28.744 43.5026 30.152C44.5586 27.4 45.7426 25.16 47.0546 23.432C48.3666 21.704 49.6466 20.472 50.8946 19.736C52.1746 19 53.3426 18.632 54.3986 18.632C56.4786 18.632 57.5186 19.672 57.5186 21.752C57.5186 22.168 57.3746 23.176 57.0866 24.776C56.8306 26.056 56.7026 26.856 56.7026 27.176C56.7026 28.296 57.1026 28.856 57.9026 28.856C58.7986 28.856 59.9506 28.152 61.3586 26.744C61.7746 26.328 62.2066 26.12 62.6546 26.12C63.0706 26.12 63.3906 26.312 63.6146 26.696C63.8706 27.048 63.9986 27.528 63.9986 28.136C63.9986 29.32 63.6786 30.248 63.0386 30.92C62.1426 31.848 61.0866 32.648 59.8706 33.32C58.6866 33.96 57.4226 34.28 56.0786 34.28C54.3826 34.28 53.0866 33.848 52.1906 32.984C51.3266 32.12 50.8946 30.952 50.8946 29.48C50.8946 29 50.9426 28.52 51.0386 28.04C51.1026 27.4 51.1346 26.968 51.1346 26.744C51.1346 26.232 50.9586 25.976 50.6066 25.976C50.1266 25.976 49.4866 26.52 48.6866 27.608C47.9186 28.664 47.1506 30.072 46.3826 31.832C45.6146 33.592 44.9906 35.448 44.5106 37.4C44.1586 38.904 43.7426 39.928 43.2626 40.472C42.8146 40.984 42.0946 41.24 41.1026 41.24ZM80.9464 30.296C81.3624 30.296 81.6824 30.488 81.9064 30.872C82.1624 31.256 82.2904 31.784 82.2904 32.456C82.2904 33.736 81.9864 34.728 81.3784 35.432C80.1944 36.872 78.5144 38.2 76.3384 39.416C74.1944 40.632 71.8904 41.24 69.4264 41.24C66.0664 41.24 63.4584 40.328 61.6024 38.504C59.7464 36.68 58.8184 34.184 58.8184 31.016C58.8184 28.808 59.2824 26.76 60.2104 24.872C61.1384 22.952 62.4184 21.432 64.0504 20.312C65.7144 19.192 67.5864 18.632 69.6664 18.632C71.5224 18.632 73.0104 19.192 74.1304 20.312C75.2504 21.4 75.8104 22.888 75.8104 24.776C75.8104 26.984 75.0104 28.888 73.4104 30.488C71.8424 32.056 69.1704 33.304 65.3944 34.232C66.1944 35.704 67.7144 36.44 69.9544 36.44C71.3944 36.44 73.0264 35.944 74.8504 34.952C76.7064 33.928 78.3064 32.6 79.6504 30.968C80.0344 30.52 80.4664 30.296 80.9464 30.296ZM68.8504 23.336C67.6664 23.336 66.6584 24.024 65.8264 25.4C65.0264 26.776 64.6264 28.44 64.6264 30.392V30.488C66.5144 30.04 68.0024 29.368 69.0904 28.472C70.1784 27.576 70.7224 26.536 70.7224 25.352C70.7224 24.744 70.5464 24.264 70.1944 23.912C69.8744 23.528 69.4264 23.336 68.8504 23.336ZM99.7901 30.296C100.206 30.296 100.526 30.488 100.75 30.872C101.006 31.256 101.134 31.784 101.134 32.456C101.134 33.736 100.83 34.728 100.222 35.432C99.0381 36.872 97.3581 38.2 95.1821 39.416C93.0381 40.632 90.7341 41.24 88.2701 41.24C84.9101 41.24 82.3021 40.328 80.4461 38.504C78.5901 36.68 77.6621 34.184 77.6621 31.016C77.6621 28.808 78.1261 26.76 79.0541 24.872C79.9821 22.952 81.2621 21.432 82.8941 20.312C84.5581 19.192 86.4301 18.632 88.5101 18.632C90.3661 18.632 91.8541 19.192 92.9741 20.312C94.0941 21.4 94.6541 22.888 94.6541 24.776C94.6541 26.984 93.8541 28.888 92.2541 30.488C90.6861 32.056 88.0141 33.304 84.2381 34.232C85.0381 35.704 86.5581 36.44 88.7981 36.44C90.2381 36.44 91.8701 35.944 93.6941 34.952C95.5501 33.928 97.1501 32.6 98.4941 30.968C98.8781 30.52 99.3101 30.296 99.7901 30.296ZM87.6941 23.336C86.5101 23.336 85.5021 24.024 84.6701 25.4C83.8701 26.776 83.4701 28.44 83.4701 30.392V30.488C85.3581 30.04 86.8461 29.368 87.9341 28.472C89.0221 27.576 89.5661 26.536 89.5661 25.352C89.5661 24.744 89.3901 24.264 89.0381 23.912C88.7181 23.528 88.2701 23.336 87.6941 23.336ZM100.634 41.24C99.4179 41.24 98.5539 40.6 98.0419 39.32C97.5619 38.04 97.3219 35.992 97.3219 33.176C97.3219 29.016 97.9139 25.064 99.0979 21.32C99.3859 20.392 99.8499 19.72 100.49 19.304C101.162 18.856 102.09 18.632 103.274 18.632C103.914 18.632 104.362 18.712 104.618 18.872C104.874 19.032 105.002 19.336 105.002 19.784C105.002 20.296 104.762 21.448 104.282 23.24C103.962 24.52 103.706 25.64 103.514 26.6C103.322 27.56 103.162 28.744 103.034 30.152C104.09 27.4 105.274 25.16 106.586 23.432C107.898 21.704 109.178 20.472 110.426 19.736C111.706 19 112.874 18.632 113.93 18.632C114.954 18.632 115.722 18.904 116.234 19.448C116.778 19.96 117.05 20.728 117.05 21.752C117.05 22.584 116.874 24.152 116.522 26.456C116.202 28.408 115.946 30.264 115.754 32.024C115.562 33.752 115.466 35.688 115.466 37.832C115.466 39.048 115.21 39.928 114.698 40.472C114.218 40.984 113.418 41.24 112.298 41.24C111.242 41.24 110.474 40.968 109.994 40.424C109.514 39.88 109.274 39.064 109.274 37.976C109.274 36.696 109.498 34.584 109.946 31.64C110.33 29.08 110.522 27.448 110.522 26.744C110.522 26.232 110.346 25.976 109.994 25.976C109.578 25.976 108.986 26.52 108.218 27.608C107.482 28.664 106.714 30.072 105.914 31.832C105.146 33.592 104.522 35.448 104.042 37.4C103.69 38.904 103.274 39.928 102.794 40.472C102.346 40.984 101.626 41.24 100.634 41.24ZM146.571 41.384C142.315 41.384 138.907 40.584 136.347 38.984C133.787 37.352 132.507 34.872 132.507 31.544C132.507 29.784 132.811 28.44 133.419 27.512C134.027 26.584 134.923 26.12 136.107 26.12C136.971 26.12 137.675 26.344 138.219 26.792C138.763 27.24 139.035 27.816 139.035 28.52C139.035 29.16 138.987 29.72 138.891 30.2C138.891 30.328 138.859 30.552 138.795 30.872C138.763 31.192 138.747 31.528 138.747 31.88C138.747 33.32 139.467 34.392 140.907 35.096C142.379 35.8 144.427 36.152 147.051 36.152C149.771 36.152 151.899 35.672 153.435 34.712C154.971 33.72 155.739 32.344 155.739 30.584C155.739 29.496 155.387 28.568 154.683 27.8C153.979 27 153.099 26.344 152.043 25.832C150.987 25.288 149.499 24.632 147.579 23.864C145.115 22.904 143.099 21.992 141.531 21.128C139.995 20.264 138.667 19.096 137.547 17.624C136.459 16.12 135.915 14.264 135.915 12.056C135.915 9.752 136.523 7.704 137.739 5.912C138.987 4.12 140.763 2.728 143.067 1.736C145.403 0.743999 148.139 0.247998 151.275 0.247998C153.611 0.247998 155.755 0.599998 157.707 1.304C159.659 1.976 161.211 3.016 162.363 4.424C163.547 5.832 164.139 7.56 164.139 9.608C164.139 11.624 163.835 13.144 163.227 14.168C162.619 15.192 161.723 15.704 160.539 15.704C159.707 15.704 159.003 15.448 158.427 14.936C157.883 14.424 157.611 13.816 157.611 13.112C157.611 12.504 157.659 11.944 157.755 11.432C157.851 10.472 157.899 9.864 157.899 9.608C157.899 8.264 157.243 7.24 155.931 6.536C154.619 5.832 152.987 5.48 151.035 5.48C148.283 5.48 146.171 5.992 144.699 7.016C143.259 8.008 142.539 9.416 142.539 11.24C142.539 12.456 142.907 13.496 143.643 14.36C144.411 15.224 145.355 15.944 146.475 16.52C147.595 17.096 149.163 17.784 151.179 18.584C153.611 19.576 155.563 20.472 157.035 21.272C158.507 22.072 159.755 23.16 160.779 24.536C161.835 25.912 162.363 27.608 162.363 29.624C162.363 33.4 160.923 36.312 158.043 38.36C155.195 40.376 151.371 41.384 146.571 41.384ZM192.092 30.296C192.508 30.296 192.828 30.488 193.052 30.872C193.308 31.256 193.436 31.784 193.436 32.456C193.436 33.736 193.132 34.728 192.524 35.432C191.148 37.128 189.66 38.52 188.06 39.608C186.492 40.696 184.7 41.24 182.684 41.24C180.988 41.24 179.612 40.632 178.556 39.416C176.732 40.6 174.828 41.208 172.844 41.24C172.428 47.416 171.484 52.568 170.012 56.696C168.54 60.856 166.38 62.936 163.532 62.936C161.804 62.936 160.524 62.312 159.692 61.064C158.86 59.816 158.444 58.088 158.444 55.88C158.444 52.744 159.164 49.08 160.604 44.888C162.044 40.728 164.268 36.136 167.276 31.112C167.276 26.44 167.244 23.192 167.18 21.368C167.148 20.44 167.516 19.704 168.284 19.16C169.052 18.616 170.012 18.344 171.164 18.344C171.836 18.344 172.316 18.488 172.604 18.776C172.924 19.032 173.1 19.56 173.132 20.36C173.132 21.16 173.148 21.752 173.18 22.136C174.204 20.856 175.212 19.944 176.204 19.4C177.196 18.824 178.252 18.536 179.372 18.536C181.164 18.536 182.62 19.256 183.74 20.696C184.892 22.136 185.468 24.024 185.468 26.36C185.468 28.056 185.196 29.704 184.652 31.304C184.108 32.904 183.356 34.36 182.396 35.672C183.068 35.864 183.628 35.96 184.076 35.96C185.132 35.96 186.14 35.576 187.1 34.808C188.06 34.04 189.292 32.76 190.796 30.968C191.18 30.52 191.612 30.296 192.092 30.296ZM173.084 36.632C174.236 36.376 175.292 35.752 176.252 34.76C177.244 33.736 178.028 32.488 178.604 31.016C179.18 29.512 179.468 27.944 179.468 26.312C179.468 25.352 179.276 24.632 178.892 24.152C178.508 23.64 177.996 23.384 177.356 23.384C176.204 23.384 174.812 24.6 173.18 27.032C173.148 28.44 173.132 30.504 173.132 33.224C173.132 34.696 173.116 35.832 173.084 36.632ZM163.916 58.232C164.78 58.232 165.5 56.344 166.076 52.568C166.652 48.824 167.02 44.152 167.18 38.552C165.804 41.752 164.716 44.808 163.916 47.72C163.116 50.632 162.716 53.08 162.716 55.064C162.716 56.088 162.844 56.872 163.1 57.416C163.324 57.96 163.596 58.232 163.916 58.232ZM192.978 41.24C191.762 41.24 190.898 40.6 190.386 39.32C189.906 38.04 189.666 35.992 189.666 33.176C189.666 29.016 190.258 25.064 191.442 21.32C191.73 20.392 192.194 19.72 192.834 19.304C193.506 18.856 194.434 18.632 195.618 18.632C196.258 18.632 196.706 18.712 196.962 18.872C197.218 19.032 197.346 19.336 197.346 19.784C197.346 20.296 197.106 21.448 196.626 23.24C196.306 24.52 196.05 25.64 195.858 26.6C195.666 27.56 195.506 28.744 195.378 30.152C196.434 27.4 197.618 25.16 198.93 23.432C200.242 21.704 201.522 20.472 202.77 19.736C204.05 19 205.218 18.632 206.274 18.632C208.354 18.632 209.394 19.672 209.394 21.752C209.394 22.168 209.25 23.176 208.962 24.776C208.706 26.056 208.578 26.856 208.578 27.176C208.578 28.296 208.978 28.856 209.778 28.856C210.674 28.856 211.826 28.152 213.234 26.744C213.65 26.328 214.082 26.12 214.53 26.12C214.946 26.12 215.266 26.312 215.49 26.696C215.746 27.048 215.874 27.528 215.874 28.136C215.874 29.32 215.554 30.248 214.914 30.92C214.018 31.848 212.962 32.648 211.746 33.32C210.562 33.96 209.298 34.28 207.954 34.28C206.258 34.28 204.962 33.848 204.066 32.984C203.202 32.12 202.77 30.952 202.77 29.48C202.77 29 202.818 28.52 202.914 28.04C202.978 27.4 203.01 26.968 203.01 26.744C203.01 26.232 202.834 25.976 202.482 25.976C202.002 25.976 201.362 26.52 200.562 27.608C199.794 28.664 199.026 30.072 198.258 31.832C197.49 33.592 196.866 35.448 196.386 37.4C196.034 38.904 195.618 39.928 195.138 40.472C194.69 40.984 193.97 41.24 192.978 41.24ZM217.701 15.464C216.357 15.464 215.349 15.16 214.677 14.552C214.005 13.912 213.669 13.032 213.669 11.912C213.669 10.792 214.101 9.864 214.965 9.128C215.861 8.36 216.965 7.976 218.277 7.976C219.461 7.976 220.421 8.264 221.157 8.84C221.893 9.416 222.261 10.232 222.261 11.288C222.261 12.568 221.845 13.592 221.013 14.36C220.181 15.096 219.077 15.464 217.701 15.464ZM217.317 41.24C215.237 41.24 213.717 40.504 212.757 39.032C211.829 37.56 211.365 35.608 211.365 33.176C211.365 31.736 211.541 29.896 211.893 27.656C212.277 25.384 212.757 23.272 213.333 21.32C213.621 20.296 214.005 19.592 214.485 19.208C214.965 18.824 215.733 18.632 216.789 18.632C218.421 18.632 219.237 19.176 219.237 20.264C219.237 21.064 218.933 22.92 218.325 25.832C217.557 29.352 217.173 31.736 217.173 32.984C217.173 33.944 217.301 34.68 217.557 35.192C217.813 35.704 218.245 35.96 218.853 35.96C219.429 35.96 220.149 35.56 221.013 34.76C221.877 33.96 223.029 32.696 224.469 30.968C224.853 30.52 225.285 30.296 225.765 30.296C226.181 30.296 226.501 30.488 226.725 30.872C226.981 31.256 227.109 31.784 227.109 32.456C227.109 33.736 226.805 34.728 226.197 35.432C223.029 39.304 220.069 41.24 217.317 41.24ZM226.634 41.24C225.418 41.24 224.554 40.6 224.042 39.32C223.562 38.04 223.322 35.992 223.322 33.176C223.322 29.016 223.914 25.064 225.098 21.32C225.386 20.392 225.85 19.72 226.49 19.304C227.162 18.856 228.09 18.632 229.274 18.632C229.914 18.632 230.362 18.712 230.618 18.872C230.874 19.032 231.002 19.336 231.002 19.784C231.002 20.296 230.762 21.448 230.282 23.24C229.962 24.52 229.706 25.64 229.514 26.6C229.322 27.56 229.162 28.744 229.034 30.152C230.09 27.4 231.274 25.16 232.586 23.432C233.898 21.704 235.178 20.472 236.426 19.736C237.706 19 238.874 18.632 239.93 18.632C242.01 18.632 243.05 19.672 243.05 21.752C243.05 23 242.698 25.256 241.994 28.52C241.386 31.304 241.082 33.144 241.082 34.04C241.082 35.32 241.546 35.96 242.474 35.96C243.114 35.96 243.866 35.576 244.73 34.808C245.626 34.008 246.81 32.728 248.282 30.968C248.666 30.52 249.098 30.296 249.578 30.296C249.994 30.296 250.314 30.488 250.538 30.872C250.794 31.256 250.922 31.784 250.922 32.456C250.922 33.736 250.618 34.728 250.01 35.432C248.634 37.128 247.146 38.52 245.546 39.608C243.978 40.696 242.186 41.24 240.17 41.24C238.538 41.24 237.306 40.776 236.474 39.848C235.642 38.888 235.226 37.512 235.226 35.72C235.226 34.824 235.45 33.224 235.898 30.92C236.314 28.904 236.522 27.512 236.522 26.744C236.522 26.232 236.346 25.976 235.994 25.976C235.578 25.976 234.986 26.52 234.218 27.608C233.482 28.664 232.714 30.072 231.914 31.832C231.146 33.592 230.522 35.448 230.042 37.4C229.69 38.904 229.274 39.928 228.794 40.472C228.346 40.984 227.626 41.24 226.634 41.24ZM263.31 20.216C264.11 20.216 264.67 20.344 264.99 20.6C265.342 20.824 265.518 21.288 265.518 21.992C265.518 22.376 265.502 22.68 265.47 22.904C265.342 23.896 264.942 26.456 264.27 30.584C263.79 33.368 263.486 35.208 263.358 36.104C262.142 44.36 260.494 50.872 258.414 55.64C256.366 60.44 253.614 62.84 250.158 62.84C248.526 62.84 247.198 62.328 246.174 61.304C245.15 60.312 244.638 59 244.638 57.368C244.638 55.096 245.534 52.648 247.326 50.024C249.118 47.432 252.478 44.232 257.406 40.424L257.694 38.552C257.15 39.416 256.43 40.088 255.534 40.568C254.67 41.016 253.806 41.24 252.942 41.24C250.958 41.24 249.374 40.52 248.19 39.08C247.006 37.64 246.414 35.752 246.414 33.416C246.414 30.856 247.006 28.44 248.19 26.168C249.374 23.864 250.942 22.024 252.894 20.648C254.878 19.24 256.974 18.536 259.182 18.536C259.886 18.536 260.35 18.68 260.574 18.968C260.83 19.224 261.038 19.704 261.198 20.408C261.806 20.28 262.51 20.216 263.31 20.216ZM254.67 36.392C255.406 36.392 256.11 35.944 256.782 35.048C257.454 34.152 257.934 32.872 258.222 31.208L259.758 23C258.446 23.032 257.23 23.544 256.11 24.536C254.99 25.496 254.094 26.776 253.422 28.376C252.75 29.976 252.414 31.672 252.414 33.464C252.414 34.456 252.606 35.192 252.99 35.672C253.406 36.152 253.966 36.392 254.67 36.392ZM250.686 58.184C251.486 58.184 252.382 57.224 253.374 55.304C254.398 53.384 255.374 50.328 256.302 46.136C253.838 48.248 252.062 50.152 250.974 51.848C249.886 53.544 249.342 55.032 249.342 56.312C249.342 56.856 249.438 57.304 249.63 57.656C249.854 58.008 250.206 58.184 250.686 58.184Z" fill="#5C6B4C"/>
</svg>
