<svg width="300" height="100" viewBox="0 0 300 100" fill="none" xmlns="http://www.w3.org/2000/svg">
<g clip-path="url(#clip0)">
<path d="M53.816 51.392C54.232 51.392 54.552 51.6 54.776 52.016C55.032 52.4 55.16 52.896 55.16 53.504C55.16 54.24 55.048 54.816 54.824 55.232C54.6 55.648 54.248 56.016 53.768 56.336C51.88 57.584 48.872 59.632 44.744 62.48C43.496 69.104 41.88 74.32 39.896 78.128C37.912 81.936 35.4 83.84 32.36 83.84C30.728 83.84 29.4 83.328 28.376 82.304C27.352 81.312 26.84 80 26.84 78.368C26.84 76.864 27.176 75.344 27.848 73.808C28.52 72.272 29.768 70.496 31.592 68.48C33.448 66.464 36.056 64.16 39.416 61.568L39.56 60.656C37.032 61.712 34.552 62.24 32.12 62.24C28.536 62.24 25.384 61.552 22.664 60.176C19.944 58.768 17.832 56.784 16.328 54.224C14.824 51.664 14.072 48.688 14.072 45.296C14.072 40.56 14.968 36.384 16.76 32.768C18.552 29.12 21.016 26.304 24.152 24.32C27.32 22.304 30.856 21.296 34.76 21.296C38.504 21.296 41.304 22.176 43.16 23.936C45.048 25.664 45.992 27.968 45.992 30.848C45.992 32.736 45.64 34.256 44.936 35.408C44.264 36.528 43.288 37.088 42.008 37.088C41.144 37.088 40.44 36.88 39.896 36.464C39.384 36.048 39.128 35.472 39.128 34.736C39.128 34.416 39.192 33.872 39.32 33.104C39.512 32.208 39.608 31.504 39.608 30.992C39.608 29.648 39.192 28.608 38.36 27.872C37.56 27.136 36.2 26.768 34.28 26.768C31.944 26.768 29.768 27.44 27.752 28.784C25.768 30.128 24.168 32.144 22.952 34.832C21.736 37.488 21.128 40.688 21.128 44.432C21.128 48.272 22.168 51.248 24.248 53.36C26.36 55.44 29.4 56.48 33.368 56.48C35.576 56.48 37.88 55.984 40.28 54.992L40.952 49.136H36.056C35.16 49.136 34.472 48.928 33.992 48.512C33.512 48.064 33.272 47.344 33.272 46.352C33.272 45.456 33.512 44.752 33.992 44.24C34.472 43.728 35.112 43.472 35.912 43.472H44.888C45.592 43.472 46.168 43.712 46.616 44.192C47.096 44.64 47.288 45.296 47.192 46.16C47.096 47.184 46.776 49.504 46.232 53.12L45.704 56.768C48.264 54.848 50.6 53.184 52.712 51.776C53.128 51.52 53.496 51.392 53.816 51.392ZM32.888 79.184C33.72 79.184 34.632 78.24 35.624 76.352C36.616 74.464 37.544 71.424 38.408 67.232C35.976 69.312 34.216 71.184 33.128 72.848C32.072 74.544 31.544 76.032 31.544 77.312C31.544 78.56 31.992 79.184 32.888 79.184ZM55.1026 62.24C53.8866 62.24 53.0226 61.6 52.5106 60.32C52.0306 59.04 51.7906 56.992 51.7906 54.176C51.7906 50.016 52.3826 46.064 53.5666 42.32C53.8546 41.392 54.3186 40.72 54.9586 40.304C55.6306 39.856 56.5586 39.632 57.7426 39.632C58.3826 39.632 58.8306 39.712 59.0866 39.872C59.3426 40.032 59.4706 40.336 59.4706 40.784C59.4706 41.296 59.2306 42.448 58.7506 44.24C58.4306 45.52 58.1746 46.64 57.9826 47.6C57.7906 48.56 57.6306 49.744 57.5026 51.152C58.5586 48.4 59.7426 46.16 61.0546 44.432C62.3666 42.704 63.6466 41.472 64.8946 40.736C66.1746 40 67.3426 39.632 68.3986 39.632C70.4786 39.632 71.5186 40.672 71.5186 42.752C71.5186 43.168 71.3746 44.176 71.0866 45.776C70.8306 47.056 70.7026 47.856 70.7026 48.176C70.7026 49.296 71.1026 49.856 71.9026 49.856C72.7986 49.856 73.9506 49.152 75.3586 47.744C75.7746 47.328 76.2066 47.12 76.6546 47.12C77.0706 47.12 77.3906 47.312 77.6146 47.696C77.8706 48.048 77.9986 48.528 77.9986 49.136C77.9986 50.32 77.6786 51.248 77.0386 51.92C76.1426 52.848 75.0866 53.648 73.8706 54.32C72.6866 54.96 71.4226 55.28 70.0786 55.28C68.3826 55.28 67.0866 54.848 66.1906 53.984C65.3266 53.12 64.8946 51.952 64.8946 50.48C64.8946 50 64.9426 49.52 65.0386 49.04C65.1026 48.4 65.1346 47.968 65.1346 47.744C65.1346 47.232 64.9586 46.976 64.6066 46.976C64.1266 46.976 63.4866 47.52 62.6866 48.608C61.9186 49.664 61.1506 51.072 60.3826 52.832C59.6146 54.592 58.9906 56.448 58.5106 58.4C58.1586 59.904 57.7426 60.928 57.2626 61.472C56.8146 61.984 56.0946 62.24 55.1026 62.24ZM94.9464 51.296C95.3624 51.296 95.6824 51.488 95.9064 51.872C96.1624 52.256 96.2904 52.784 96.2904 53.456C96.2904 54.736 95.9864 55.728 95.3784 56.432C94.1944 57.872 92.5144 59.2 90.3384 60.416C88.1944 61.632 85.8904 62.24 83.4264 62.24C80.0664 62.24 77.4584 61.328 75.6024 59.504C73.7464 57.68 72.8184 55.184 72.8184 52.016C72.8184 49.808 73.2824 47.76 74.2104 45.872C75.1384 43.952 76.4184 42.432 78.0504 41.312C79.7144 40.192 81.5864 39.632 83.6664 39.632C85.5224 39.632 87.0104 40.192 88.1304 41.312C89.2504 42.4 89.8104 43.888 89.8104 45.776C89.8104 47.984 89.0104 49.888 87.4104 51.488C85.8424 53.056 83.1704 54.304 79.3944 55.232C80.1944 56.704 81.7144 57.44 83.9544 57.44C85.3944 57.44 87.0264 56.944 88.8504 55.952C90.7064 54.928 92.3064 53.6 93.6504 51.968C94.0344 51.52 94.4664 51.296 94.9464 51.296ZM82.8504 44.336C81.6664 44.336 80.6584 45.024 79.8264 46.4C79.0264 47.776 78.6264 49.44 78.6264 51.392V51.488C80.5144 51.04 82.0024 50.368 83.0904 49.472C84.1784 48.576 84.7224 47.536 84.7224 46.352C84.7224 45.744 84.5464 45.264 84.1944 44.912C83.8744 44.528 83.4264 44.336 82.8504 44.336ZM113.79 51.296C114.206 51.296 114.526 51.488 114.75 51.872C115.006 52.256 115.134 52.784 115.134 53.456C115.134 54.736 114.83 55.728 114.222 56.432C113.038 57.872 111.358 59.2 109.182 60.416C107.038 61.632 104.734 62.24 102.27 62.24C98.9101 62.24 96.3021 61.328 94.4461 59.504C92.5901 57.68 91.6621 55.184 91.6621 52.016C91.6621 49.808 92.1261 47.76 93.0541 45.872C93.9821 43.952 95.2621 42.432 96.8941 41.312C98.5581 40.192 100.43 39.632 102.51 39.632C104.366 39.632 105.854 40.192 106.974 41.312C108.094 42.4 108.654 43.888 108.654 45.776C108.654 47.984 107.854 49.888 106.254 51.488C104.686 53.056 102.014 54.304 98.2381 55.232C99.0381 56.704 100.558 57.44 102.798 57.44C104.238 57.44 105.87 56.944 107.694 55.952C109.55 54.928 111.15 53.6 112.494 51.968C112.878 51.52 113.31 51.296 113.79 51.296ZM101.694 44.336C100.51 44.336 99.5021 45.024 98.6701 46.4C97.8701 47.776 97.4701 49.44 97.4701 51.392V51.488C99.3581 51.04 100.846 50.368 101.934 49.472C103.022 48.576 103.566 47.536 103.566 46.352C103.566 45.744 103.39 45.264 103.038 44.912C102.718 44.528 102.27 44.336 101.694 44.336ZM114.634 62.24C113.418 62.24 112.554 61.6 112.042 60.32C111.562 59.04 111.322 56.992 111.322 54.176C111.322 50.016 111.914 46.064 113.098 42.32C113.386 41.392 113.85 40.72 114.49 40.304C115.162 39.856 116.09 39.632 117.274 39.632C117.914 39.632 118.362 39.712 118.618 39.872C118.874 40.032 119.002 40.336 119.002 40.784C119.002 41.296 118.762 42.448 118.282 44.24C117.962 45.52 117.706 46.64 117.514 47.6C117.322 48.56 117.162 49.744 117.034 51.152C118.09 48.4 119.274 46.16 120.586 44.432C121.898 42.704 123.178 41.472 124.426 40.736C125.706 40 126.874 39.632 127.93 39.632C128.954 39.632 129.722 39.904 130.234 40.448C130.778 40.96 131.05 41.728 131.05 42.752C131.05 43.584 130.874 45.152 130.522 47.456C130.202 49.408 129.946 51.264 129.754 53.024C129.562 54.752 129.466 56.688 129.466 58.832C129.466 60.048 129.21 60.928 128.698 61.472C128.218 61.984 127.418 62.24 126.298 62.24C125.242 62.24 124.474 61.968 123.994 61.424C123.514 60.88 123.274 60.064 123.274 58.976C123.274 57.696 123.498 55.584 123.946 52.64C124.33 50.08 124.522 48.448 124.522 47.744C124.522 47.232 124.346 46.976 123.994 46.976C123.578 46.976 122.986 47.52 122.218 48.608C121.482 49.664 120.714 51.072 119.914 52.832C119.146 54.592 118.522 56.448 118.042 58.4C117.69 59.904 117.274 60.928 116.794 61.472C116.346 61.984 115.626 62.24 114.634 62.24ZM160.571 62.384C156.315 62.384 152.907 61.584 150.347 59.984C147.787 58.352 146.507 55.872 146.507 52.544C146.507 50.784 146.811 49.44 147.419 48.512C148.027 47.584 148.923 47.12 150.107 47.12C150.971 47.12 151.675 47.344 152.219 47.792C152.763 48.24 153.035 48.816 153.035 49.52C153.035 50.16 152.987 50.72 152.891 51.2C152.891 51.328 152.859 51.552 152.795 51.872C152.763 52.192 152.747 52.528 152.747 52.88C152.747 54.32 153.467 55.392 154.907 56.096C156.379 56.8 158.427 57.152 161.051 57.152C163.771 57.152 165.899 56.672 167.435 55.712C168.971 54.72 169.739 53.344 169.739 51.584C169.739 50.496 169.387 49.568 168.683 48.8C167.979 48 167.099 47.344 166.043 46.832C164.987 46.288 163.499 45.632 161.579 44.864C159.115 43.904 157.099 42.992 155.531 42.128C153.995 41.264 152.667 40.096 151.547 38.624C150.459 37.12 149.915 35.264 149.915 33.056C149.915 30.752 150.523 28.704 151.739 26.912C152.987 25.12 154.763 23.728 157.067 22.736C159.403 21.744 162.139 21.248 165.275 21.248C167.611 21.248 169.755 21.6 171.707 22.304C173.659 22.976 175.211 24.016 176.363 25.424C177.547 26.832 178.139 28.56 178.139 30.608C178.139 32.624 177.835 34.144 177.227 35.168C176.619 36.192 175.723 36.704 174.539 36.704C173.707 36.704 173.003 36.448 172.427 35.936C171.883 35.424 171.611 34.816 171.611 34.112C171.611 33.504 171.659 32.944 171.755 32.432C171.851 31.472 171.899 30.864 171.899 30.608C171.899 29.264 171.243 28.24 169.931 27.536C168.619 26.832 166.987 26.48 165.035 26.48C162.283 26.48 160.171 26.992 158.699 28.016C157.259 29.008 156.539 30.416 156.539 32.24C156.539 33.456 156.907 34.496 157.643 35.36C158.411 36.224 159.355 36.944 160.475 37.52C161.595 38.096 163.163 38.784 165.179 39.584C167.611 40.576 169.563 41.472 171.035 42.272C172.507 43.072 173.755 44.16 174.779 45.536C175.835 46.912 176.363 48.608 176.363 50.624C176.363 54.4 174.923 57.312 172.043 59.36C169.195 61.376 165.371 62.384 160.571 62.384ZM206.092 51.296C206.508 51.296 206.828 51.488 207.052 51.872C207.308 52.256 207.436 52.784 207.436 53.456C207.436 54.736 207.132 55.728 206.524 56.432C205.148 58.128 203.66 59.52 202.06 60.608C200.492 61.696 198.7 62.24 196.684 62.24C194.988 62.24 193.612 61.632 192.556 60.416C190.732 61.6 188.828 62.208 186.844 62.24C186.428 68.416 185.484 73.568 184.012 77.696C182.54 81.856 180.38 83.936 177.532 83.936C175.804 83.936 174.524 83.312 173.692 82.064C172.86 80.816 172.444 79.088 172.444 76.88C172.444 73.744 173.164 70.08 174.604 65.888C176.044 61.728 178.268 57.136 181.276 52.112C181.276 47.44 181.244 44.192 181.18 42.368C181.148 41.44 181.516 40.704 182.284 40.16C183.052 39.616 184.012 39.344 185.164 39.344C185.836 39.344 186.316 39.488 186.604 39.776C186.924 40.032 187.1 40.56 187.132 41.36C187.132 42.16 187.148 42.752 187.18 43.136C188.204 41.856 189.212 40.944 190.204 40.4C191.196 39.824 192.252 39.536 193.372 39.536C195.164 39.536 196.62 40.256 197.74 41.696C198.892 43.136 199.468 45.024 199.468 47.36C199.468 49.056 199.196 50.704 198.652 52.304C198.108 53.904 197.356 55.36 196.396 56.672C197.068 56.864 197.628 56.96 198.076 56.96C199.132 56.96 200.14 56.576 201.1 55.808C202.06 55.04 203.292 53.76 204.796 51.968C205.18 51.52 205.612 51.296 206.092 51.296ZM187.084 57.632C188.236 57.376 189.292 56.752 190.252 55.76C191.244 54.736 192.028 53.488 192.604 52.016C193.18 50.512 193.468 48.944 193.468 47.312C193.468 46.352 193.276 45.632 192.892 45.152C192.508 44.64 191.996 44.384 191.356 44.384C190.204 44.384 188.812 45.6 187.18 48.032C187.148 49.44 187.132 51.504 187.132 54.224C187.132 55.696 187.116 56.832 187.084 57.632ZM177.916 79.232C178.78 79.232 179.5 77.344 180.076 73.568C180.652 69.824 181.02 65.152 181.18 59.552C179.804 62.752 178.716 65.808 177.916 68.72C177.116 71.632 176.716 74.08 176.716 76.064C176.716 77.088 176.844 77.872 177.1 78.416C177.324 78.96 177.596 79.232 177.916 79.232ZM206.978 62.24C205.762 62.24 204.898 61.6 204.386 60.32C203.906 59.04 203.666 56.992 203.666 54.176C203.666 50.016 204.258 46.064 205.442 42.32C205.73 41.392 206.194 40.72 206.834 40.304C207.506 39.856 208.434 39.632 209.618 39.632C210.258 39.632 210.706 39.712 210.962 39.872C211.218 40.032 211.346 40.336 211.346 40.784C211.346 41.296 211.106 42.448 210.626 44.24C210.306 45.52 210.05 46.64 209.858 47.6C209.666 48.56 209.506 49.744 209.378 51.152C210.434 48.4 211.618 46.16 212.93 44.432C214.242 42.704 215.522 41.472 216.77 40.736C218.05 40 219.218 39.632 220.274 39.632C222.354 39.632 223.394 40.672 223.394 42.752C223.394 43.168 223.25 44.176 222.962 45.776C222.706 47.056 222.578 47.856 222.578 48.176C222.578 49.296 222.978 49.856 223.778 49.856C224.674 49.856 225.826 49.152 227.234 47.744C227.65 47.328 228.082 47.12 228.53 47.12C228.946 47.12 229.266 47.312 229.49 47.696C229.746 48.048 229.874 48.528 229.874 49.136C229.874 50.32 229.554 51.248 228.914 51.92C228.018 52.848 226.962 53.648 225.746 54.32C224.562 54.96 223.298 55.28 221.954 55.28C220.258 55.28 218.962 54.848 218.066 53.984C217.202 53.12 216.77 51.952 216.77 50.48C216.77 50 216.818 49.52 216.914 49.04C216.978 48.4 217.01 47.968 217.01 47.744C217.01 47.232 216.834 46.976 216.482 46.976C216.002 46.976 215.362 47.52 214.562 48.608C213.794 49.664 213.026 51.072 212.258 52.832C211.49 54.592 210.866 56.448 210.386 58.4C210.034 59.904 209.618 60.928 209.138 61.472C208.69 61.984 207.97 62.24 206.978 62.24ZM231.701 36.464C230.357 36.464 229.349 36.16 228.677 35.552C228.005 34.912 227.669 34.032 227.669 32.912C227.669 31.792 228.101 30.864 228.965 30.128C229.861 29.36 230.965 28.976 232.277 28.976C233.461 28.976 234.421 29.264 235.157 29.84C235.893 30.416 236.261 31.232 236.261 32.288C236.261 33.568 235.845 34.592 235.013 35.36C234.181 36.096 233.077 36.464 231.701 36.464ZM231.317 62.24C229.237 62.24 227.717 61.504 226.757 60.032C225.829 58.56 225.365 56.608 225.365 54.176C225.365 52.736 225.541 50.896 225.893 48.656C226.277 46.384 226.757 44.272 227.333 42.32C227.621 41.296 228.005 40.592 228.485 40.208C228.965 39.824 229.733 39.632 230.789 39.632C232.421 39.632 233.237 40.176 233.237 41.264C233.237 42.064 232.933 43.92 232.325 46.832C231.557 50.352 231.173 52.736 231.173 53.984C231.173 54.944 231.301 55.68 231.557 56.192C231.813 56.704 232.245 56.96 232.853 56.96C233.429 56.96 234.149 56.56 235.013 55.76C235.877 54.96 237.029 53.696 238.469 51.968C238.853 51.52 239.285 51.296 239.765 51.296C240.181 51.296 240.501 51.488 240.725 51.872C240.981 52.256 241.109 52.784 241.109 53.456C241.109 54.736 240.805 55.728 240.197 56.432C237.029 60.304 234.069 62.24 231.317 62.24ZM240.634 62.24C239.418 62.24 238.554 61.6 238.042 60.32C237.562 59.04 237.322 56.992 237.322 54.176C237.322 50.016 237.914 46.064 239.098 42.32C239.386 41.392 239.85 40.72 240.49 40.304C241.162 39.856 242.09 39.632 243.274 39.632C243.914 39.632 244.362 39.712 244.618 39.872C244.874 40.032 245.002 40.336 245.002 40.784C245.002 41.296 244.762 42.448 244.282 44.24C243.962 45.52 243.706 46.64 243.514 47.6C243.322 48.56 243.162 49.744 243.034 51.152C244.09 48.4 245.274 46.16 246.586 44.432C247.898 42.704 249.178 41.472 250.426 40.736C251.706 40 252.874 39.632 253.93 39.632C256.01 39.632 257.05 40.672 257.05 42.752C257.05 44 256.698 46.256 255.994 49.52C255.386 52.304 255.082 54.144 255.082 55.04C255.082 56.32 255.546 56.96 256.474 56.96C257.114 56.96 257.866 56.576 258.73 55.808C259.626 55.008 260.81 53.728 262.282 51.968C262.666 51.52 263.098 51.296 263.578 51.296C263.994 51.296 264.314 51.488 264.538 51.872C264.794 52.256 264.922 52.784 264.922 53.456C264.922 54.736 264.618 55.728 264.01 56.432C262.634 58.128 261.146 59.52 259.546 60.608C257.978 61.696 256.186 62.24 254.17 62.24C252.538 62.24 251.306 61.776 250.474 60.848C249.642 59.888 249.226 58.512 249.226 56.72C249.226 55.824 249.45 54.224 249.898 51.92C250.314 49.904 250.522 48.512 250.522 47.744C250.522 47.232 250.346 46.976 249.994 46.976C249.578 46.976 248.986 47.52 248.218 48.608C247.482 49.664 246.714 51.072 245.914 52.832C245.146 54.592 244.522 56.448 244.042 58.4C243.69 59.904 243.274 60.928 242.794 61.472C242.346 61.984 241.626 62.24 240.634 62.24ZM277.31 41.216C278.11 41.216 278.67 41.344 278.99 41.6C279.342 41.824 279.518 42.288 279.518 42.992C279.518 43.376 279.502 43.68 279.47 43.904C279.342 44.896 278.942 47.456 278.27 51.584C277.79 54.368 277.486 56.208 277.358 57.104C276.142 65.36 274.494 71.872 272.414 76.64C270.366 81.44 267.614 83.84 264.158 83.84C262.526 83.84 261.198 83.328 260.174 82.304C259.15 81.312 258.638 80 258.638 78.368C258.638 76.096 259.534 73.648 261.326 71.024C263.118 68.432 266.478 65.232 271.406 61.424L271.694 59.552C271.15 60.416 270.43 61.088 269.534 61.568C268.67 62.016 267.806 62.24 266.942 62.24C264.958 62.24 263.374 61.52 262.19 60.08C261.006 58.64 260.414 56.752 260.414 54.416C260.414 51.856 261.006 49.44 262.19 47.168C263.374 44.864 264.942 43.024 266.894 41.648C268.878 40.24 270.974 39.536 273.182 39.536C273.886 39.536 274.35 39.68 274.574 39.968C274.83 40.224 275.038 40.704 275.198 41.408C275.806 41.28 276.51 41.216 277.31 41.216ZM268.67 57.392C269.406 57.392 270.11 56.944 270.782 56.048C271.454 55.152 271.934 53.872 272.222 52.208L273.758 44C272.446 44.032 271.23 44.544 270.11 45.536C268.99 46.496 268.094 47.776 267.422 49.376C266.75 50.976 266.414 52.672 266.414 54.464C266.414 55.456 266.606 56.192 266.99 56.672C267.406 57.152 267.966 57.392 268.67 57.392ZM264.686 79.184C265.486 79.184 266.382 78.224 267.374 76.304C268.398 74.384 269.374 71.328 270.302 67.136C267.838 69.248 266.062 71.152 264.974 72.848C263.886 74.544 263.342 76.032 263.342 77.312C263.342 77.856 263.438 78.304 263.63 78.656C263.854 79.008 264.206 79.184 264.686 79.184Z" fill="white"/>
</g>
<defs>
<clipPath id="clip0">
<rect width="300" height="100" fill="white"/>
</clipPath>
</defs>
</svg>
